<?xml version="1.0" encoding="UTF-8"?><svg id="Layer_1" xmlns="http://www.w3.org/2000/svg" xmlns:xlink="http://www.w3.org/1999/xlink" viewBox="0 0 1761.47 1904.27"><defs><clipPath id="clippath"><rect x="260.6" y="176.23" width="1240.28" height="1242.76" style="fill:none;"/></clipPath><clipPath id="clippath-1"><rect x="260.6" y="176.23" width="1240.28" height="1242.76" style="fill:none;"/></clipPath><clipPath id="clippath-2"><rect x="260.6" y="176.23" width="1240.28" height="1242.76" style="fill:none;"/></clipPath><clipPath id="clippath-4"><rect x="260.6" y="176.23" width="1240.28" height="1242.76" style="fill:none;"/></clipPath></defs><path d="M1533.43,15H228.04C110.38,15,15,110.38,15,228.04v1139.14c0,117.66,95.38,213.04,213.04,213.04h51.32v216.75c0,1.08.02,2.15.05,3.22,2.26,78.18,95.9,117.41,154.47,65.57l314.14-285.53h785.4c117.66,0,213.04-95.38,213.04-213.04V228.04c0-117.66-95.38-213.04-213.04-213.04Z" style="fill:#ececec; stroke:#666; stroke-miterlimit:10; stroke-width:30px;"/><g style="clip-path:url(#clippath);"><g style="clip-path:url(#clippath-1);"><path d="M1005.71,1150.42s-9.17-113.92,87.07-209.61c96.23-95.69,82.49-248.34,34.37-325.81-48.11-77.46-128.3-145.81-263.49-145.81s-211.85,66.09-254.33,143.54c-50.64,92.35-63.52,228.08,38.95,339.48,85.96,93.44,77.9,200.5,77.9,200.5l279.53-2.28Z" style="fill:#f0ad46;"/></g><g style="clip-path:url(#clippath-2);"><path d="M1358.01,750.09h-100.18c-16.3,0-29.52-13.14-29.52-29.35s13.22-29.35,29.52-29.35h100.18c16.3,0,29.52,13.15,29.52,29.35s-13.22,29.35-29.52,29.35" style="fill:#f0ad46;"/><path d="M892.7,271.99v99.62c0,16.21-13.22,29.35-29.52,29.35s-29.51-13.14-29.51-29.35v-99.62c0-16.21,13.22-29.35,29.51-29.35s29.52,13.14,29.52,29.35" style="fill:#f0ad46;"/><path d="M476.04,750.09h-100.18c-16.3,0-29.52-13.14-29.52-29.35s13.22-29.35,29.52-29.35h100.18c16.3,0,29.52,13.15,29.52,29.35s-13.22,29.35-29.52,29.35" style="fill:#f0ad46;"/><path d="M1221.09,425.19l-70.84,70.44c-11.53,11.46-30.22,11.46-41.75,0-11.53-11.46-11.53-30.04,0-41.51l70.84-70.45c11.53-11.46,30.22-11.46,41.75,0,11.53,11.46,11.53,30.05,0,41.51" style="fill:#f0ad46;"/><path d="M582.44,492.08l-70.84-70.44c-11.53-11.46-11.53-30.05,0-41.51,11.52-11.46,30.21-11.46,41.74,0l70.84,70.44c11.53,11.46,11.53,30.05,0,41.51-11.53,11.46-30.22,11.46-41.75,0" style="fill:#f0ad46;"/></g><g style="clip-path:url(#clippath-4);"><path d="M997.78,1126.35l-74.18.09-1.14-218.83c35.59-4.63,58.93-22.02,69.47-50.56,10.41-28.02-1.47-57.51-27.18-69.6-24.14-11.44-58.78-6.33-71.04,22.26-8.13,18.95-6.65,40.87-7.6,63.98l-48.57-.19-1.9-40.59c-1.43-30.38-25.04-52.55-54.36-50.61-24.43,1.61-47.57,22.07-49.75,51.46-2.85,39.5,31.08,65.4,71.28,71.78l1.28,220.06-81.88,1.75c-.86,0-1.71.14-2.57.33h286.69c-2.71-.85-5.56-1.32-8.55-1.32M942.7,818.5c8.7.71,21.29,12.9,16.39,24.76-6.61,16.16-17.87,22.82-35.69,28.3l-.71-37.9c-.14-7.14,13.54-15.64,20.01-15.17M765.12,845.15c-2.9-6.43,2.99-20.7,8.32-24.34,6.08-4.16,26.14.43,26.99,7.94,1.57,13.37,2.04,23.72,2.66,40.73-17.11-2.46-31.03-9.36-37.97-24.34M886.96,1126.68l-49.28-.33-.81-215.76,50.32.61-.24,215.48Z" style="fill:#333;"/><path d="M974.72,1234.85c0,59.93-48.86,108.52-109.13,108.52s-109.13-48.59-109.13-108.52,48.86-108.52,109.13-108.52,109.13,48.59,109.13,108.52"/><path d="M1002.81,1187.71h-275.36c-15.86,0-28.71-12.78-28.71-28.55v-4.28c0-15.76,12.85-28.55,28.71-28.55h275.36c15.86,0,28.71,12.78,28.71,28.55v4.28c0,15.76-12.85,28.55-28.71,28.55" style="fill:#333;"/><rect x="720.78" y="1185.04" width="287.93" height="41.81"/><path d="M721.13,1219.73l287.13-.44s7.16,64.49-55.9,64.49-130.15-1.33-183.82-1.33-47.41-62.71-47.41-62.71" style="fill:#333;"/></g></g><path d="M240.79,260.76c0,11.67-4.74,21.88-14.2,30.64-9.47,8.75-20.64,13.13-33.51,13.13-20.22,0-35.76-6.66-46.61-19.97-10.85-13.31-16.27-31.73-16.27-55.26,0-21.88,9.33-43.95,27.99-66.2,18.66-22.25,41.14-39.12,67.44-50.61l12.13,19.42c-20.81,10.03-37.1,21.7-48.89,35.02-11.79,13.31-18.6,29.45-20.44,48.42h15.47c11.41,0,20.71,1.28,27.89,3.83,7.18,2.56,12.98,6.11,17.4,10.67,4.23,4.38,7.22,9.21,8.97,14.5,1.75,5.29,2.63,10.76,2.63,16.41ZM376.41,260.76c0,11.67-4.74,21.88-14.2,30.64-9.47,8.75-20.64,13.13-33.51,13.13-20.22,0-35.76-6.66-46.61-19.97-10.85-13.31-16.27-31.73-16.27-55.26,0-21.88,9.33-43.95,27.99-66.2,18.66-22.25,41.14-39.12,67.44-50.61l12.13,19.42c-20.81,10.03-37.1,21.7-48.89,35.02-11.79,13.31-18.6,29.45-20.44,48.42h15.47c11.41,0,20.71,1.28,27.89,3.83,7.18,2.56,12.98,6.11,17.4,10.67,4.23,4.38,7.22,9.21,8.97,14.5,1.75,5.29,2.63,10.76,2.63,16.41Z" style="fill:#666;"/><path d="M1398.71,1459.41c20.8-10.03,37.1-21.7,48.89-35.02,11.78-13.31,18.59-29.45,20.44-48.42h-15.47c-11.42,0-20.71-1.27-27.89-3.83-7.18-2.55-12.98-6.11-17.4-10.67-4.23-4.38-7.23-9.21-8.98-14.5-1.75-5.29-2.62-10.76-2.62-16.41,0-11.67,4.73-21.88,14.2-30.64,9.47-8.75,20.64-13.13,33.51-13.13,20.22,0,35.75,6.66,46.6,19.97,10.85,13.31,16.27,31.73,16.27,55.26,0,21.88-9.33,43.95-28,66.2-18.66,22.25-41.14,39.12-67.43,50.61l-12.13-19.42ZM1534.33,1459.41c20.8-10.03,37.1-21.7,48.89-35.02,11.78-13.31,18.6-29.45,20.44-48.42h-15.47c-11.42,0-20.71-1.27-27.89-3.83-7.18-2.55-12.98-6.11-17.4-10.67-4.23-4.38-7.23-9.21-8.98-14.5-1.75-5.29-2.62-10.76-2.62-16.41,0-11.67,4.73-21.88,14.2-30.64,9.46-8.75,20.64-13.13,33.51-13.13,20.22,0,35.75,6.66,46.6,19.97,10.85,13.31,16.27,31.73,16.27,55.26,0,21.88-9.33,43.95-28,66.2-18.66,22.25-41.14,39.12-67.43,50.61l-12.13-19.42Z" style="fill:#666;"/></svg>